<?xml version="1.0" encoding="UTF-8" standalone="no"?>
<!-- Created with Inkscape (http://www.inkscape.org/) -->

<svg
   xmlns:dc="http://purl.org/dc/elements/1.1/"
   xmlns:cc="http://creativecommons.org/ns#"
   xmlns:rdf="http://www.w3.org/1999/02/22-rdf-syntax-ns#"
   xmlns:svg="http://www.w3.org/2000/svg"
   xmlns="http://www.w3.org/2000/svg"
   xmlns:sodipodi="http://sodipodi.sourceforge.net/DTD/sodipodi-0.dtd"
   xmlns:inkscape="http://www.inkscape.org/namespaces/inkscape"
   width="170.15454mm"
   height="90.229561mm"
   viewBox="0 0 170.15454 90.229561"
   version="1.1"
   id="svg4656"
   inkscape:version="0.92.0 r15299"
   sodipodi:docname="logo.svg">
  <defs
     id="defs4650" />
  <sodipodi:namedview
     id="base"
     pagecolor="#ffffff"
     bordercolor="#666666"
     borderopacity="1.0"
     inkscape:pageopacity="0.0"
     inkscape:pageshadow="2"
     inkscape:zoom="0.35"
     inkscape:cx="-258.44806"
     inkscape:cy="104.79828"
     inkscape:document-units="mm"
     inkscape:current-layer="layer1"
     showgrid="false"
     inkscape:pagecheckerboard="true"
     fit-margin-top="10"
     fit-margin-left="10"
     fit-margin-bottom="10"
     fit-margin-right="10"
     inkscape:window-width="1920"
     inkscape:window-height="1027"
     inkscape:window-x="-8"
     inkscape:window-y="-8"
     inkscape:window-maximized="1" />
  <metadata
     id="metadata4653">
    <rdf:RDF>
      <cc:Work
         rdf:about="">
        <dc:format>image/svg+xml</dc:format>
        <dc:type
           rdf:resource="http://purl.org/dc/dcmitype/StillImage" />
        <dc:title></dc:title>
      </cc:Work>
    </rdf:RDF>
  </metadata>
  <g
     inkscape:label="Calque 1"
     inkscape:groupmode="layer"
     id="layer1"
     transform="translate(-26.803668,-86.331647)">
    <g
       aria-label="esclics"
       style="font-style:normal;font-variant:normal;font-weight:normal;font-stretch:normal;font-size:34.8087616px;line-height:21.75547791px;font-family:'Nexa Bold';-inkscape-font-specification:'Nexa Bold, ';letter-spacing:-0.04351095px;word-spacing:0px;fill:#292b2c;fill-opacity:1;stroke:none;stroke-width:0.87021893px;stroke-linecap:butt;stroke-linejoin:miter;stroke-opacity:1"
       id="text4951-1-0-2">
      <path
         d="m 103.25076,133.98706 c 0.66136,-7.06618 -2.92394,-10.61667 -8.667385,-10.61667 -5.569402,0 -9.119896,3.75934 -9.119896,8.98066 0,5.49978 3.515685,9.1547 9.433175,9.1547 2.610657,0 5.569406,-0.90503 7.379456,-2.7847 l -2.715082,-2.68027 c -0.974645,1.00945 -3.028362,1.6012 -4.594757,1.6012 -2.993553,0 -4.838418,-1.53159 -5.116888,-3.65492 z m -13.331759,-3.51569 c 0.626558,-2.22776 2.506231,-3.34164 4.803609,-3.34164 2.436613,0 4.177051,1.11388 4.455521,3.34164 z"
         style="font-style:normal;font-variant:normal;font-weight:normal;font-stretch:normal;font-family:'Nexa Bold';-inkscape-font-specification:'Nexa Bold, ';fill:#292b2c;fill-opacity:1;stroke-width:0.87021893px"
         id="path5262" />
      <path
         d="m 120.08895,125.66777 c -1.9841,-1.74044 -4.00301,-2.26257 -6.68328,-2.26257 -3.13279,0 -7.24022,1.39235 -7.24022,5.36055 0,3.89858 3.86377,5.08207 7.10098,5.32574 2.43662,0.13923 3.41126,0.62655 3.41126,1.81005 0,1.25312 -1.49677,2.08853 -3.09798,2.05372 -1.91448,-0.0348 -4.69918,-1.04426 -5.91749,-2.40181 l -2.08852,3.02837 c 2.50623,2.61065 5.22131,3.06317 7.93639,3.06317 4.90804,0 7.37946,-2.61066 7.37946,-5.63902 0,-4.55995 -4.10743,-5.29093 -7.34465,-5.49979 -2.19295,-0.13923 -3.2024,-0.76579 -3.2024,-1.87967 0,-1.07907 1.11388,-1.70563 3.13279,-1.70563 1.63601,0 3.02836,0.3829 4.24667,1.53159 z"
         style="font-style:normal;font-variant:normal;font-weight:normal;font-stretch:normal;font-family:'Nexa Bold';-inkscape-font-specification:'Nexa Bold, ';fill:#292b2c;fill-opacity:1;stroke-width:0.87021893px"
         id="path5264" />
      <path
         d="m 135.40426,136.07559 c -1.04426,1.04426 -2.4018,1.42715 -3.75934,1.42715 -2.64547,0 -4.87323,-1.74043 -4.87323,-5.01246 0,-2.99355 2.08853,-5.08208 4.94284,-5.08208 1.1835,0 2.43662,0.45252 3.44607,1.35755 l 2.68028,-2.81951 c -1.87968,-1.84487 -3.75935,-2.54104 -6.19596,-2.54104 -4.97766,0 -9.1199,2.99355 -9.1199,9.08508 0,6.09154 4.14224,9.08509 9.1199,9.08509 2.54104,0 4.62956,-0.76579 6.61366,-2.71508 z"
         style="font-style:normal;font-variant:normal;font-weight:normal;font-stretch:normal;font-family:'Nexa Bold';-inkscape-font-specification:'Nexa Bold, ';fill:#292b2c;fill-opacity:1;stroke-width:0.87021893px"
         id="path5266" />
      <path
         d="m 140.07951,116.72191 v 24.33133 h 4.21186 v -24.33133 z"
         style="font-style:normal;font-variant:normal;font-weight:normal;font-stretch:normal;font-family:'Nexa Bold';-inkscape-font-specification:'Nexa Bold, ';fill:#292b2c;fill-opacity:1;stroke-width:0.87021893px"
         id="path5268" />
      <path
         d="m 152.23702,123.8229 v 17.23034 h -4.24667 V 123.8229 Z m -4.62957,-4.7688 c 0,3.30683 5.01246,3.30683 5.01246,0 0,-3.30683 -5.01246,-3.30683 -5.01246,0 z"
         style="font-style:normal;font-variant:normal;font-weight:normal;font-stretch:normal;font-family:'Nexa Bold';-inkscape-font-specification:'Nexa Bold, ';fill:#292b2c;fill-opacity:1;stroke-width:0.87021893px"
         id="path5270" />
      <path
         d="m 167.90694,136.07559 c -1.04426,1.04426 -2.4018,1.42715 -3.75934,1.42715 -2.64547,0 -4.87323,-1.74043 -4.87323,-5.01246 0,-2.99355 2.08853,-5.08208 4.94285,-5.08208 1.18349,0 2.43661,0.45252 3.44606,1.35755 l 2.68028,-2.81951 c -1.87968,-1.84487 -3.75935,-2.54104 -6.19596,-2.54104 -4.97766,0 -9.1199,2.99355 -9.1199,9.08508 0,6.09154 4.14224,9.08509 9.1199,9.08509 2.54104,0 4.62956,-0.76579 6.61366,-2.71508 z"
         style="font-style:normal;font-variant:normal;font-weight:normal;font-stretch:normal;font-family:'Nexa Bold';-inkscape-font-specification:'Nexa Bold, ';fill:#292b2c;fill-opacity:1;stroke-width:0.87021893px"
         id="path5272" />
      <path
         d="m 186.15761,125.66777 c -1.9841,-1.74044 -4.00301,-2.26257 -6.68328,-2.26257 -3.13279,0 -7.24022,1.39235 -7.24022,5.36055 0,3.89858 3.86377,5.08207 7.10098,5.32574 2.43662,0.13923 3.41126,0.62655 3.41126,1.81005 0,1.25312 -1.49678,2.08853 -3.09798,2.05372 -1.91448,-0.0348 -4.69918,-1.04426 -5.91749,-2.40181 l -2.08852,3.02837 c 2.50623,2.61065 5.22131,3.06317 7.93639,3.06317 4.90804,0 7.37946,-2.61066 7.37946,-5.63902 0,-4.55995 -4.10743,-5.29093 -7.34465,-5.49979 -2.19295,-0.13923 -3.2024,-0.76579 -3.2024,-1.87967 0,-1.07907 1.11388,-1.70563 3.13279,-1.70563 1.63601,0 3.02836,0.3829 4.24666,1.53159 z"
         style="font-style:normal;font-variant:normal;font-weight:normal;font-stretch:normal;font-family:'Nexa Bold';-inkscape-font-specification:'Nexa Bold, ';fill:#292b2c;fill-opacity:1;stroke-width:0.87021893px"
         id="path5274" />
    </g>
    <g
       id="g5588-2-9-7-2-23"
       transform="matrix(0.92495407,0.38351037,-0.38351037,0.92495407,-304.12162,-175.41287)"
       style="stroke-width:2.21993518;stroke-miterlimit:4;stroke-dasharray:none"
       inkscape:export-xdpi="515.34637"
       inkscape:export-ydpi="515.34637"
       inkscape:export-filename="C:\Users\mescl\Pictures\CHARTE GRAPHIQUE\siganturemail.png">
      <g
         style="stroke:#292b2c;stroke-width:5.7243247;stroke-miterlimit:4;stroke-dasharray:none;stroke-opacity:1"
         inkscape:export-ydpi="212.23853"
         inkscape:export-xdpi="212.23853"
         id="g6254-2-2-3-4-2-5-0-5-6-6-7-9"
         transform="matrix(0.38720357,0.02163188,-0.02163188,0.38720357,401.70415,77.998119)">
        <g
           style="stroke:#292b2c;stroke-width:5.7243247;stroke-miterlimit:4;stroke-dasharray:none;stroke-opacity:1"
           id="g4460-9-2-4-2-3-9-4-4-8-1-9-3-2"
           transform="translate(-110.3736,-524.66966)">
          <g
             style="stroke:#292b2c;stroke-width:5.7243247;stroke-miterlimit:4;stroke-dasharray:none;stroke-opacity:1"
             id="g4449-2-7-3-7-4-8-8-8-4-2-3-3-0"
             transform="rotate(8.3903223,150.49834,742.95558)">
            <path
               sodipodi:nodetypes="ccssscccssc"
               inkscape:connector-curvature="0"
               id="path4451-1-1-3-1-9-4-0-6-6-1-8-0-4"
               d="m 300.07646,651.3963 c 1.36293,-0.31246 9.85239,-0.28938 9.75792,10.52523 1.09298,37.78267 0.99655,47.50286 -1.675,59.77615 -3.51493,16.14781 -10.82387,19.12902 -16.98722,21.7018 -24.5845,10.26234 -40.40902,11.53161 -54.08868,4.00039 -16.65019,-9.16662 -29.27707,-26.62021 -51.50025,-61.51465 -0.34067,-16.3155 14.11257,-8.10209 14.11257,-8.10209 L 221.65753,704.9007 200.3584,602.45641 c -2.22418,-10.69784 18.53103,-14.54024 20.87403,-4.34515 l 7.98048,34.72537"
               style="fill:none;fill-opacity:1;stroke:#292b2c;stroke-width:7.76178026;stroke-linecap:square;stroke-linejoin:round;stroke-miterlimit:4;stroke-dasharray:none;stroke-opacity:1" />
          </g>
        </g>
        <g
           style="stroke:#292b2c;stroke-width:5.7243247;stroke-miterlimit:4;stroke-dasharray:none;stroke-opacity:1"
           id="g6250-9-5-4-1-3-9-9-1-7-5-9-3" />
      </g>
      <path
         id="path5465-3-4-2-5-1"
         style="font-style:normal;font-variant:normal;font-weight:normal;font-stretch:normal;font-size:22.46808624px;line-height:14.0425539px;font-family:'Nexa Light';-inkscape-font-specification:'Nexa Light, ';letter-spacing:-0.02808511px;word-spacing:0px;fill:#ff384e;fill-opacity:1;stroke:#ff384e;stroke-width:2.21993518;stroke-linecap:round;stroke-linejoin:miter;stroke-miterlimit:4;stroke-dasharray:none;stroke-opacity:1"
         d="m 473.93917,144.61436 -0.14034,-8.79352 c -0.0583,-3.65409 -2.6535,-6.13847 -6.24815,-6.0811 -2.25781,0.0361 -4.52587,1.29059 -5.37869,3.71114 -0.90328,-2.60055 -3.26632,-3.57316 -5.4944,-3.5376 -1.90131,0.0304 -3.76008,0.86234 -4.73935,2.80948 l -0.0683,-2.4356 -1.36656,0.0219 0.23424,14.67569 1.45568,-0.0232 -0.13892,-8.7044 c -0.0451,-2.82226 1.82352,-4.90244 4.61607,-4.94701 2.79253,-0.0445 4.75628,1.97445 4.80131,4.79669 l 0.13892,8.70442 1.4557,-0.0232 -0.13893,-8.7044 c -0.0451,-2.82226 1.85277,-4.93261 4.64532,-4.97718 2.79253,-0.0446 4.72561,1.91549 4.77065,4.73775 l 0.14037,8.79351 z"
         inkscape:connector-curvature="0" />
    </g>
  </g>
</svg>
